<mxfile host="app.diagrams.net" agent="Mozilla/5.0 (Macintosh; Intel Mac OS X 10_15_7) AppleWebKit/537.36 (KHTML, like Gecko) Chrome/127.0.0.0 Safari/537.36" version="24.7.7">
  <diagram id="C5RBs43oDa-KdzZeNtuy" name="Page-1">
    <mxGraphModel dx="787" dy="442" grid="1" gridSize="10" guides="1" tooltips="1" connect="1" arrows="1" fold="1" page="1" pageScale="1" pageWidth="827" pageHeight="1169" math="0" shadow="0">
      <root>
        <mxCell id="WIyWlLk6GJQsqaUBKTNV-0" />
        <mxCell id="WIyWlLk6GJQsqaUBKTNV-1" parent="WIyWlLk6GJQsqaUBKTNV-0" />
        <mxCell id="e-_WCHEav21t-MaE0KTX-3" style="edgeStyle=orthogonalEdgeStyle;rounded=0;orthogonalLoop=1;jettySize=auto;html=1;" edge="1" parent="WIyWlLk6GJQsqaUBKTNV-1">
          <mxGeometry relative="1" as="geometry">
            <mxPoint x="180" y="180" as="sourcePoint" />
            <mxPoint x="180" y="220" as="targetPoint" />
          </mxGeometry>
        </mxCell>
        <mxCell id="e-_WCHEav21t-MaE0KTX-1" style="edgeStyle=orthogonalEdgeStyle;rounded=0;orthogonalLoop=1;jettySize=auto;html=1;entryX=0.5;entryY=0;entryDx=0;entryDy=0;" edge="1" parent="WIyWlLk6GJQsqaUBKTNV-1" source="e-_WCHEav21t-MaE0KTX-0">
          <mxGeometry relative="1" as="geometry">
            <mxPoint x="180" y="140" as="targetPoint" />
          </mxGeometry>
        </mxCell>
        <mxCell id="e-_WCHEav21t-MaE0KTX-0" value="Mulai" style="ellipse;whiteSpace=wrap;html=1;" vertex="1" parent="WIyWlLk6GJQsqaUBKTNV-1">
          <mxGeometry x="120" y="60" width="120" height="40" as="geometry" />
        </mxCell>
        <mxCell id="e-_WCHEav21t-MaE0KTX-14" style="edgeStyle=orthogonalEdgeStyle;rounded=0;orthogonalLoop=1;jettySize=auto;html=1;entryX=0;entryY=0.5;entryDx=0;entryDy=0;exitX=1;exitY=0.5;exitDx=0;exitDy=0;" edge="1" parent="WIyWlLk6GJQsqaUBKTNV-1" source="e-_WCHEav21t-MaE0KTX-4" target="e-_WCHEav21t-MaE0KTX-16">
          <mxGeometry relative="1" as="geometry">
            <Array as="points">
              <mxPoint x="270" y="360" />
              <mxPoint x="270" y="160" />
            </Array>
          </mxGeometry>
        </mxCell>
        <mxCell id="e-_WCHEav21t-MaE0KTX-7" value="Request Login with Google" style="shape=trapezoid;perimeter=trapezoidPerimeter;whiteSpace=wrap;html=1;fixedSize=1;flipV=1;" vertex="1" parent="WIyWlLk6GJQsqaUBKTNV-1">
          <mxGeometry x="120" y="140" width="120" height="40" as="geometry" />
        </mxCell>
        <mxCell id="e-_WCHEav21t-MaE0KTX-11" value="" style="swimlane;startSize=0;" vertex="1" parent="WIyWlLk6GJQsqaUBKTNV-1">
          <mxGeometry x="40" y="120" width="280" height="460" as="geometry" />
        </mxCell>
        <mxCell id="e-_WCHEav21t-MaE0KTX-23" value="Mendapatkan&amp;nbsp;&lt;div&gt;Respon Gagal&lt;/div&gt;" style="rounded=1;whiteSpace=wrap;html=1;fontSize=12;glass=0;strokeWidth=1;shadow=0;" vertex="1" parent="e-_WCHEav21t-MaE0KTX-11">
          <mxGeometry x="80" y="280" width="120" height="40" as="geometry" />
        </mxCell>
        <mxCell id="e-_WCHEav21t-MaE0KTX-6" value="User Memilih&amp;nbsp;&lt;div&gt;Email&lt;/div&gt;" style="shape=trapezoid;perimeter=trapezoidPerimeter;whiteSpace=wrap;html=1;fixedSize=1;flipV=1;" vertex="1" parent="e-_WCHEav21t-MaE0KTX-11">
          <mxGeometry x="80" y="80" width="120" height="40" as="geometry" />
        </mxCell>
        <mxCell id="e-_WCHEav21t-MaE0KTX-8" value="Google Auth&amp;nbsp;&lt;div&gt;Client ID&lt;/div&gt;" style="shape=parallelogram;perimeter=parallelogramPerimeter;whiteSpace=wrap;html=1;fixedSize=1;" vertex="1" parent="e-_WCHEav21t-MaE0KTX-11">
          <mxGeometry x="80" y="150" width="120" height="40" as="geometry" />
        </mxCell>
        <mxCell id="e-_WCHEav21t-MaE0KTX-9" style="edgeStyle=orthogonalEdgeStyle;rounded=0;orthogonalLoop=1;jettySize=auto;html=1;entryX=0.5;entryY=0;entryDx=0;entryDy=0;" edge="1" parent="e-_WCHEav21t-MaE0KTX-11" source="e-_WCHEav21t-MaE0KTX-6" target="e-_WCHEav21t-MaE0KTX-8">
          <mxGeometry relative="1" as="geometry" />
        </mxCell>
        <mxCell id="e-_WCHEav21t-MaE0KTX-4" value="Generate Google oAuth Token" style="rounded=1;whiteSpace=wrap;html=1;fontSize=12;glass=0;strokeWidth=1;shadow=0;" vertex="1" parent="e-_WCHEav21t-MaE0KTX-11">
          <mxGeometry x="80" y="220" width="120" height="40" as="geometry" />
        </mxCell>
        <mxCell id="e-_WCHEav21t-MaE0KTX-10" style="edgeStyle=orthogonalEdgeStyle;rounded=0;orthogonalLoop=1;jettySize=auto;html=1;entryX=0.5;entryY=0;entryDx=0;entryDy=0;" edge="1" parent="e-_WCHEav21t-MaE0KTX-11" source="e-_WCHEav21t-MaE0KTX-8" target="e-_WCHEav21t-MaE0KTX-4">
          <mxGeometry relative="1" as="geometry" />
        </mxCell>
        <mxCell id="e-_WCHEav21t-MaE0KTX-46" style="edgeStyle=orthogonalEdgeStyle;rounded=0;orthogonalLoop=1;jettySize=auto;html=1;entryX=0.5;entryY=0;entryDx=0;entryDy=0;" edge="1" parent="e-_WCHEav21t-MaE0KTX-11" source="e-_WCHEav21t-MaE0KTX-41" target="e-_WCHEav21t-MaE0KTX-45">
          <mxGeometry relative="1" as="geometry" />
        </mxCell>
        <mxCell id="e-_WCHEav21t-MaE0KTX-41" value="Mendapatkan&amp;nbsp;&lt;div&gt;Respon JWT&lt;/div&gt;" style="rounded=1;whiteSpace=wrap;html=1;fontSize=12;glass=0;strokeWidth=1;shadow=0;" vertex="1" parent="e-_WCHEav21t-MaE0KTX-11">
          <mxGeometry x="80" y="345" width="120" height="40" as="geometry" />
        </mxCell>
        <mxCell id="e-_WCHEav21t-MaE0KTX-45" value="Simpen JWT ke&amp;nbsp;&lt;div&gt;Local Storage&lt;/div&gt;" style="rounded=1;whiteSpace=wrap;html=1;fontSize=12;glass=0;strokeWidth=1;shadow=0;" vertex="1" parent="e-_WCHEav21t-MaE0KTX-11">
          <mxGeometry x="80" y="410" width="120" height="40" as="geometry" />
        </mxCell>
        <mxCell id="e-_WCHEav21t-MaE0KTX-51" value="Front End" style="text;html=1;align=center;verticalAlign=middle;resizable=0;points=[];autosize=1;strokeColor=none;fillColor=none;" vertex="1" parent="e-_WCHEav21t-MaE0KTX-11">
          <mxGeometry x="208" y="-4" width="80" height="30" as="geometry" />
        </mxCell>
        <mxCell id="e-_WCHEav21t-MaE0KTX-12" value="" style="swimlane;startSize=0;" vertex="1" parent="WIyWlLk6GJQsqaUBKTNV-1">
          <mxGeometry x="340" y="120" width="530" height="460" as="geometry" />
        </mxCell>
        <mxCell id="e-_WCHEav21t-MaE0KTX-31" style="edgeStyle=orthogonalEdgeStyle;rounded=0;orthogonalLoop=1;jettySize=auto;html=1;entryX=0;entryY=0.5;entryDx=0;entryDy=0;" edge="1" parent="e-_WCHEav21t-MaE0KTX-12" source="e-_WCHEav21t-MaE0KTX-13" target="e-_WCHEav21t-MaE0KTX-30">
          <mxGeometry relative="1" as="geometry">
            <Array as="points">
              <mxPoint x="190" y="325" />
              <mxPoint x="190" y="45" />
            </Array>
          </mxGeometry>
        </mxCell>
        <mxCell id="e-_WCHEav21t-MaE0KTX-13" value="Parsing oAuth&amp;nbsp;&lt;span style=&quot;background-color: initial;&quot;&gt;Token&lt;/span&gt;&lt;div&gt;(Nama, Email, Avatar)&lt;/div&gt;" style="rounded=1;whiteSpace=wrap;html=1;fontSize=12;glass=0;strokeWidth=1;shadow=0;" vertex="1" parent="e-_WCHEav21t-MaE0KTX-12">
          <mxGeometry x="40" y="300" width="120" height="50" as="geometry" />
        </mxCell>
        <mxCell id="e-_WCHEav21t-MaE0KTX-21" style="edgeStyle=orthogonalEdgeStyle;rounded=0;orthogonalLoop=1;jettySize=auto;html=1;entryX=0.5;entryY=0;entryDx=0;entryDy=0;" edge="1" parent="e-_WCHEav21t-MaE0KTX-12" source="e-_WCHEav21t-MaE0KTX-15" target="e-_WCHEav21t-MaE0KTX-20">
          <mxGeometry relative="1" as="geometry" />
        </mxCell>
        <mxCell id="e-_WCHEav21t-MaE0KTX-15" value="Verifikasi oAuth&amp;nbsp;&lt;div&gt;Token&lt;/div&gt;" style="rounded=1;whiteSpace=wrap;html=1;fontSize=12;glass=0;strokeWidth=1;shadow=0;" vertex="1" parent="e-_WCHEav21t-MaE0KTX-12">
          <mxGeometry x="40" y="100" width="120" height="40" as="geometry" />
        </mxCell>
        <mxCell id="e-_WCHEav21t-MaE0KTX-18" style="edgeStyle=orthogonalEdgeStyle;rounded=0;orthogonalLoop=1;jettySize=auto;html=1;entryX=0.5;entryY=0;entryDx=0;entryDy=0;" edge="1" parent="e-_WCHEav21t-MaE0KTX-12" source="e-_WCHEav21t-MaE0KTX-16" target="e-_WCHEav21t-MaE0KTX-15">
          <mxGeometry relative="1" as="geometry" />
        </mxCell>
        <mxCell id="e-_WCHEav21t-MaE0KTX-16" value="Google Auth&amp;nbsp;&lt;div&gt;Private Key&lt;/div&gt;" style="shape=parallelogram;perimeter=parallelogramPerimeter;whiteSpace=wrap;html=1;fixedSize=1;" vertex="1" parent="e-_WCHEav21t-MaE0KTX-12">
          <mxGeometry x="40" y="20" width="120" height="40" as="geometry" />
        </mxCell>
        <mxCell id="e-_WCHEav21t-MaE0KTX-22" style="edgeStyle=orthogonalEdgeStyle;rounded=0;orthogonalLoop=1;jettySize=auto;html=1;entryX=0.5;entryY=0;entryDx=0;entryDy=0;" edge="1" parent="e-_WCHEav21t-MaE0KTX-12" source="e-_WCHEav21t-MaE0KTX-20" target="e-_WCHEav21t-MaE0KTX-13">
          <mxGeometry relative="1" as="geometry" />
        </mxCell>
        <mxCell id="e-_WCHEav21t-MaE0KTX-27" value="Yes" style="edgeLabel;html=1;align=center;verticalAlign=middle;resizable=0;points=[];" vertex="1" connectable="0" parent="e-_WCHEav21t-MaE0KTX-22">
          <mxGeometry x="-0.5159" relative="1" as="geometry">
            <mxPoint y="6" as="offset" />
          </mxGeometry>
        </mxCell>
        <mxCell id="e-_WCHEav21t-MaE0KTX-20" value="Valid?" style="rhombus;whiteSpace=wrap;html=1;shadow=0;fontFamily=Helvetica;fontSize=12;align=center;strokeWidth=1;spacing=6;spacingTop=-4;" vertex="1" parent="e-_WCHEav21t-MaE0KTX-12">
          <mxGeometry x="50" y="180" width="100" height="80" as="geometry" />
        </mxCell>
        <mxCell id="e-_WCHEav21t-MaE0KTX-34" value="Yes" style="edgeStyle=orthogonalEdgeStyle;rounded=0;orthogonalLoop=1;jettySize=auto;html=1;" edge="1" parent="e-_WCHEav21t-MaE0KTX-12" source="e-_WCHEav21t-MaE0KTX-29" target="e-_WCHEav21t-MaE0KTX-32">
          <mxGeometry relative="1" as="geometry" />
        </mxCell>
        <mxCell id="e-_WCHEav21t-MaE0KTX-38" style="edgeStyle=orthogonalEdgeStyle;rounded=0;orthogonalLoop=1;jettySize=auto;html=1;entryX=0;entryY=0.5;entryDx=0;entryDy=0;" edge="1" parent="e-_WCHEav21t-MaE0KTX-12" source="e-_WCHEav21t-MaE0KTX-29" target="e-_WCHEav21t-MaE0KTX-37">
          <mxGeometry relative="1" as="geometry" />
        </mxCell>
        <mxCell id="e-_WCHEav21t-MaE0KTX-44" value="No" style="edgeLabel;html=1;align=center;verticalAlign=middle;resizable=0;points=[];" vertex="1" connectable="0" parent="e-_WCHEav21t-MaE0KTX-38">
          <mxGeometry x="-0.1748" relative="1" as="geometry">
            <mxPoint as="offset" />
          </mxGeometry>
        </mxCell>
        <mxCell id="e-_WCHEav21t-MaE0KTX-29" value="Terdaftar?" style="rhombus;whiteSpace=wrap;html=1;shadow=0;fontFamily=Helvetica;fontSize=12;align=center;strokeWidth=1;spacing=6;spacingTop=-4;" vertex="1" parent="e-_WCHEav21t-MaE0KTX-12">
          <mxGeometry x="250" y="105" width="100" height="80" as="geometry" />
        </mxCell>
        <mxCell id="e-_WCHEav21t-MaE0KTX-36" style="edgeStyle=orthogonalEdgeStyle;rounded=0;orthogonalLoop=1;jettySize=auto;html=1;entryX=0.5;entryY=0;entryDx=0;entryDy=0;" edge="1" parent="e-_WCHEav21t-MaE0KTX-12" source="e-_WCHEav21t-MaE0KTX-30" target="e-_WCHEav21t-MaE0KTX-29">
          <mxGeometry relative="1" as="geometry" />
        </mxCell>
        <mxCell id="e-_WCHEav21t-MaE0KTX-30" value="Cek Email di Database" style="rounded=1;whiteSpace=wrap;html=1;fontSize=12;glass=0;strokeWidth=1;shadow=0;" vertex="1" parent="e-_WCHEav21t-MaE0KTX-12">
          <mxGeometry x="240" y="20" width="120" height="50" as="geometry" />
        </mxCell>
        <mxCell id="e-_WCHEav21t-MaE0KTX-35" style="edgeStyle=orthogonalEdgeStyle;rounded=0;orthogonalLoop=1;jettySize=auto;html=1;entryX=0.5;entryY=0;entryDx=0;entryDy=0;" edge="1" parent="e-_WCHEav21t-MaE0KTX-12" source="e-_WCHEav21t-MaE0KTX-32" target="e-_WCHEav21t-MaE0KTX-33">
          <mxGeometry relative="1" as="geometry" />
        </mxCell>
        <mxCell id="e-_WCHEav21t-MaE0KTX-32" value="Generate Login Session" style="rounded=1;whiteSpace=wrap;html=1;fontSize=12;glass=0;strokeWidth=1;shadow=0;" vertex="1" parent="e-_WCHEav21t-MaE0KTX-12">
          <mxGeometry x="240" y="240" width="120" height="50" as="geometry" />
        </mxCell>
        <mxCell id="e-_WCHEav21t-MaE0KTX-33" value="Generate JWT&lt;div&gt;(JSON Web Token)&lt;/div&gt;" style="rounded=1;whiteSpace=wrap;html=1;fontSize=12;glass=0;strokeWidth=1;shadow=0;" vertex="1" parent="e-_WCHEav21t-MaE0KTX-12">
          <mxGeometry x="240" y="340" width="120" height="50" as="geometry" />
        </mxCell>
        <mxCell id="e-_WCHEav21t-MaE0KTX-43" style="edgeStyle=orthogonalEdgeStyle;rounded=0;orthogonalLoop=1;jettySize=auto;html=1;" edge="1" parent="e-_WCHEav21t-MaE0KTX-12" source="e-_WCHEav21t-MaE0KTX-37" target="e-_WCHEav21t-MaE0KTX-39">
          <mxGeometry relative="1" as="geometry" />
        </mxCell>
        <mxCell id="e-_WCHEav21t-MaE0KTX-37" value="Download dan Simpan Avatar ke Storage" style="rounded=1;whiteSpace=wrap;html=1;fontSize=12;glass=0;strokeWidth=1;shadow=0;" vertex="1" parent="e-_WCHEav21t-MaE0KTX-12">
          <mxGeometry x="400" y="120" width="120" height="50" as="geometry" />
        </mxCell>
        <mxCell id="e-_WCHEav21t-MaE0KTX-40" style="edgeStyle=orthogonalEdgeStyle;rounded=0;orthogonalLoop=1;jettySize=auto;html=1;entryX=1;entryY=0.5;entryDx=0;entryDy=0;" edge="1" parent="e-_WCHEav21t-MaE0KTX-12" source="e-_WCHEav21t-MaE0KTX-39" target="e-_WCHEav21t-MaE0KTX-32">
          <mxGeometry relative="1" as="geometry" />
        </mxCell>
        <mxCell id="e-_WCHEav21t-MaE0KTX-39" value="Daftarkan User ke Database" style="rounded=1;whiteSpace=wrap;html=1;fontSize=12;glass=0;strokeWidth=1;shadow=0;" vertex="1" parent="e-_WCHEav21t-MaE0KTX-12">
          <mxGeometry x="400" y="240" width="120" height="50" as="geometry" />
        </mxCell>
        <mxCell id="e-_WCHEav21t-MaE0KTX-52" value="Back End" style="text;html=1;align=center;verticalAlign=middle;resizable=0;points=[];autosize=1;strokeColor=none;fillColor=none;" vertex="1" parent="e-_WCHEav21t-MaE0KTX-12">
          <mxGeometry x="462" y="-3" width="70" height="30" as="geometry" />
        </mxCell>
        <mxCell id="e-_WCHEav21t-MaE0KTX-24" style="edgeStyle=orthogonalEdgeStyle;rounded=0;orthogonalLoop=1;jettySize=auto;html=1;entryX=1;entryY=0.5;entryDx=0;entryDy=0;" edge="1" parent="WIyWlLk6GJQsqaUBKTNV-1" source="e-_WCHEav21t-MaE0KTX-20" target="e-_WCHEav21t-MaE0KTX-23">
          <mxGeometry relative="1" as="geometry">
            <Array as="points">
              <mxPoint x="290" y="340" />
              <mxPoint x="290" y="420" />
            </Array>
          </mxGeometry>
        </mxCell>
        <mxCell id="e-_WCHEav21t-MaE0KTX-26" value="No" style="edgeLabel;html=1;align=center;verticalAlign=middle;resizable=0;points=[];" vertex="1" connectable="0" parent="e-_WCHEav21t-MaE0KTX-24">
          <mxGeometry x="-0.7701" y="1" relative="1" as="geometry">
            <mxPoint x="11" y="-11" as="offset" />
          </mxGeometry>
        </mxCell>
        <mxCell id="e-_WCHEav21t-MaE0KTX-42" style="edgeStyle=orthogonalEdgeStyle;rounded=0;orthogonalLoop=1;jettySize=auto;html=1;" edge="1" parent="WIyWlLk6GJQsqaUBKTNV-1" source="e-_WCHEav21t-MaE0KTX-33" target="e-_WCHEav21t-MaE0KTX-41">
          <mxGeometry relative="1" as="geometry" />
        </mxCell>
        <mxCell id="e-_WCHEav21t-MaE0KTX-47" value="Selesai" style="ellipse;whiteSpace=wrap;html=1;" vertex="1" parent="WIyWlLk6GJQsqaUBKTNV-1">
          <mxGeometry x="120" y="610" width="120" height="40" as="geometry" />
        </mxCell>
        <mxCell id="e-_WCHEav21t-MaE0KTX-48" style="edgeStyle=orthogonalEdgeStyle;rounded=0;orthogonalLoop=1;jettySize=auto;html=1;entryX=0.5;entryY=0;entryDx=0;entryDy=0;" edge="1" parent="WIyWlLk6GJQsqaUBKTNV-1" source="e-_WCHEav21t-MaE0KTX-45" target="e-_WCHEav21t-MaE0KTX-47">
          <mxGeometry relative="1" as="geometry" />
        </mxCell>
        <mxCell id="e-_WCHEav21t-MaE0KTX-50" style="edgeStyle=orthogonalEdgeStyle;rounded=0;orthogonalLoop=1;jettySize=auto;html=1;entryX=0;entryY=0.5;entryDx=0;entryDy=0;" edge="1" parent="WIyWlLk6GJQsqaUBKTNV-1" source="e-_WCHEav21t-MaE0KTX-23" target="e-_WCHEav21t-MaE0KTX-47">
          <mxGeometry relative="1" as="geometry">
            <Array as="points">
              <mxPoint x="90" y="420" />
              <mxPoint x="90" y="630" />
            </Array>
          </mxGeometry>
        </mxCell>
      </root>
    </mxGraphModel>
  </diagram>
</mxfile>
